<svg width="96" height="96" viewBox="0 0 96 96" fill="none" xmlns="http://www.w3.org/2000/svg">
  <rect width="96" height="96" rx="20" fill="white"/>
  <path d="M63 27.5a7.5 7.5 0 1 0 0-15 7.5 7.5 0 0 0 0 15Zm-9.9 8.9-9.5 6.1a12 12 0 1 0 4.8 7.5l9.6-6.2a12 12 0 0 0 5.5 2v16.6a12 12 0 1 0 6.5 0V46.3A12 12 0 0 0 74.8 31l8-4.5-3.1-5.4-8 4.6a12 12 0 0 0-18.6 10.7Zm-26.6 9.1a7.5 7.5 0 1 1 0 15 7.5 7.5 0 0 1 0-15Zm40.5-8.9a7.5 7.5 0 1 1 0 .1v-.1Zm2.9 37.9a7.5 7.5 0 1 1-15 0 7.5 7.5 0 0 1 15 0Z" fill="#FF7A59"/>
</svg>
